<svg xmlns="http://www.w3.org/2000/svg" width="200" height="200" viewBox="0 0 200000 200000" shape-rendering="geometricPrecision" text-rendering="geometricPrecision" image-rendering="optimizeQuality" fill-rule="evenodd" clip-rule="evenodd"><defs><style>.fil0{fill:#2b2a29}</style></defs><path class="fil0" d="M100000 1626c54331 0 98374 44042 98374 98374 0 54331-44042 98374-98374 98374-54331 0-98374-44042-98374-98374 0-54331 44042-98374 98374-98374zM63537 126136v-12644H40543v-5988l24177-34307h5323v34307h7172v5988h-7172v12644h-6507zm0-18632V83685l-16598 23819h16598zm20346-7492c0-6248 640-11301 1922-15121 1293-3833 3204-6777 5743-8836 2526-2057 5718-3080 9562-3080 2835 0 5323 567 7480 1713 2144 1147 3919 2798 5298 4954 1380 2145 2465 4769 3253 7863 802 3093 1196 7270 1196 12508 0 6210-641 11237-1911 15058-1269 3833-3178 6777-5718 8848-2525 2069-5730 3105-9599 3105-5089 0-9095-1812-12002-5447-3488-4435-5224-11620-5224-21564zm6653 24c0 8713 1011 14504 3044 17364 2034 2871 4547 4300 7530 4300 2982 0 5496-1442 7530-4313 2033-2883 3044-8662 3044-17351 0-8712-1011-14503-3044-17362-2021-2871-4560-4300-7604-4300-2982 0-5372 1269-7159 3795-2231 3216-3340 9181-3340 17868zm55243 26100v-12644h-22994v-5988l24177-34307h5323v34307h7172v5988h-7172v12644h-6507zm0-18632V83685l-16598 23819h16598zM100000 5409c52241 0 94591 42350 94591 94591s-42350 94591-94591 94591-94591-42350-94591-94591S47759 5409 100000 5409z" id="Layer_x0020_1"/></svg>