<svg xmlns="http://www.w3.org/2000/svg" width="30" height="30" viewBox="0 0 30000 30000" shape-rendering="geometricPrecision" text-rendering="geometricPrecision" image-rendering="optimizeQuality" fill-rule="evenodd" clip-rule="evenodd"><defs><style>.fil0{fill:#b32f69}</style></defs><path class="fil0" d="M15000 2063c7984 0 14457 4980 14457 11124 0 2101-758 4067-2074 5743l702 9008-7398-4117s-2128 834-5409 834c-3547 0-7684-1431-10509-3611l-6-4c-150-98-266-193-354-286-2395-1985-3862-4644-3862-7567 0-6144 6472-11124 14456-11124zM6964 16950h8036v-2646H6964v2646zm0-7806h16074v2646H6964V9144z" id="Layer_x0020_1"/></svg>