<svg xmlns="http://www.w3.org/2000/svg" width="30" height="30" viewBox="0 0 30000 30000" shape-rendering="geometricPrecision" text-rendering="geometricPrecision" image-rendering="optimizeQuality" fill-rule="evenodd" clip-rule="evenodd"><defs><style>.fil0{fill:#898989}</style></defs><path class="fil0" d="M15109 5889c163-267 341-526 534-770h1c210-268 437-523 680-762 91-89 184-177 279-262h1l193-167c196-164 400-320 612-464l214-142h1l107-67h1c72-46 146-89 221-131l111-64h1l112-61h1l113-59h1l115-57 117-57 117-53h1l118-52 119-51h1l119-47h1l120-46h1l122-45 123-43h1l124-40h1l124-38 126-37h1l125-34h1l126-32h1l128-31h1l129-27 131-26 130-24h1l131-21 132-20h1l132-17 133-15h1l133-12h1l135-11 135-8h1l136-6h1l136-4 138-1 203 4h1l202 7 202 13 200 18 198 22 197 28 195 32 194 37 193 41 190 47 188 51h1l185 56h1l184 60 182 64h1l180 70 178 72h1l175 77h1l174 81 171 85 169 90 167 93h1l163 97h1l161 100 159 105 156 109 154 112 150 115h1l148 119 144 123h1l141 125h1l138 130h1l135 132 132 136 129 138h1l125 142h1l122 145 118 148h1l115 151h1l111 154 109 156 104 159h1l100 161h1l96 164h1l92 168 90 169 85 171 81 175 77 175 72 180h1l69 180 64 183h1l59 185 56 187 51 188 46 190h1l40 193h1l37 194h1l31 195h1l27 197 22 198 18 200h1l12 202 7 203h1l2 203c0 130-4 259-9 386l-1 20c-371 7330-10409 14773-14328 17517h-644C10863 25169 825 17726 454 10396l-1-20c-6-128-9-256-9-386l2-203h1l7-203 12-202h1l18-200 22-198 27-197h1l31-195h1l37-194h1l40-193h1l46-190 51-188 56-187 59-185h1l64-183 69-180h1l72-180 77-175 81-175 85-171 90-169 92-168h1l96-164h1l100-161h1l104-159 109-156 111-154h1l115-151h1l118-148 122-145h1l125-142h1l129-138 132-136 135-132h1l138-130h1l141-125h1l144-123 148-119h1l150-115 154-112 156-109 159-105 161-100h1l163-97h1l167-93 169-90 171-85 174-81h1l175-77h1l178-72 180-70h1l182-64 184-60h1l185-56h1l188-51 190-47 193-41 194-37 195-32 197-28 198-22 200-18 202-13 202-7h1l203-4 138 1 136 4h1l136 6h1l135 8 135 11h1l133 12h1l133 15 132 17h1l132 20 131 21h1l130 24 131 26 129 27h1l128 31h1l126 32h1l125 34h1l126 37 124 38h1l124 40h1l123 43 122 45h1l120 46h1l119 47h1l119 51 118 52h1l117 53 117 57 115 57h1l113 59h1l112 61h1l111 64c74 43 149 85 221 131h1l107 67h1l214 142c211 144 416 300 612 464l193 167h1c94 85 188 174 279 262 243 239 470 494 680 762h1c193 244 371 503 534 770z" id="Layer_x0020_1"/></svg>