<svg xmlns="http://www.w3.org/2000/svg" width="293" height="57" viewBox="0 0 293000 57000" shape-rendering="geometricPrecision" text-rendering="geometricPrecision" image-rendering="optimizeQuality" fill-rule="evenodd" clip-rule="evenodd"><defs><style>.fil0{fill:#ccc}</style></defs><path class="fil0" d="M4991 10166l5215 1152 17 36930-5203 1143-57 5771c5083 686 18483 265 24417 259 22644-27 23634-22260 10037-26565 2824-2503 7006-3820 6780-11426-174-5790-3462-9331-7558-11170-5596-2512-26896-3005-33668-1851l20 5758zm217178-1565l2500 156 5058-26 2297-223-9-7266-9846-254v7613zm-5470 14900c6750 1867 5835-2374 5470 22428l-70 2373-4808 1033-81 5907 19766 178c20-8043 185-5459-2537-6594-3123-1303-1224 633-2424-1631V17703l-15243-228-72 6026zm24063-107l5383 1161-30 23747-4808 1033-81 5907 19766 178c20-8043 185-5459-2537-6594-1916-798-2424 302-2424-2897 0-21849-1285-18326 10175-19840l1025-8726c-10347 350-8172 2785-11412 5085l-455-4741-14577-230-26 5917zm-109217-6175l-5443 326 1 6736 5446 243c-17 23287-3425 34008 17652 30686l-602-6121c-2080-1459-4486-246-6086-1902-1838-1902-961-19341-961-22478l6515-436-2-6652-6519-328 6-9011h-10023l17 8935zm136202-9543l5290 1104-7 39362c-5394 2192-4892-736-4892 7279h19873c9-7638 632-5239-4961-7194l-14-47242-15363 26 73 6665zM112160 46758c-2844 2335-4336 2877-8738 2206-6138-934-2212-4260-5785-6242h-5885l74 7639c4319 8069 25793 7661 29488-2243 2714-7276-2200-11720-7260-13567-4354-1589-15540-1963-12758-8196 1330-2533 4348-3172 8112-2360 4126 889 3917 2379 4411 6399h6789l-58-8523c-3855-6937-25586-7597-28853 3541-3508 11958 10208 13376 15765 15111 3617 1129 5047 1916 4698 6234zm-28032 4870l-2261-5799c-3568 921-17526 7762-19230-6213l22580-24c0-11078-1359-19550-11020-22114-22113-5869-28440 25031-14878 35181 6356 4756 19201 4375 24808-1031zM62657 32612l12887 7c-599-11311-11290-10719-12887-7zm149596 16484V30060l-17260 25 1 6989 7247 821 7 8409c-7670 5118-25114 2440-22015-21086 1717-13039 12418-16218 20374-12808 3507 1504 3250 4064 3914 8185l7376 117V10494c-6415-5396-17595-9770-28262-5046-18058 7998-18421 40349-451 48496 8350 3785 25116 1974 29067-4848zM20338 47662c8072 61 17836 1752 17771-7426-69-9795-8923-7684-17816-7584l45 15010zm-67-22008c7423 83 16107 1463 15945-6944-151-7897-8714-6854-15713-6798l-231 13742z" id="Layer_x0020_1"/></svg>