<svg xmlns="http://www.w3.org/2000/svg" viewBox="-205 297 200 200"><path fill="#2B2A29" d="M-135 404.5v-34.3h-5.3l-24.2 34.3v6h23v12.6h6.5v-12.6h7.2v-6h-7.2zm-6.5 0h-16.6l16.6-23.8v23.8zM-87.9 384.5c-.8-3.1-1.9-5.7-3.3-7.9s-3.2-3.8-5.3-5c-2.2-1.1-4.6-1.7-7.5-1.7-3.8 0-7 1-9.6 3.1-2.5 2.1-4.4 5-5.7 8.8-1.3 3.8-1.9 8.9-1.9 15.1 0 9.9 1.7 17.1 5.2 21.6 2.9 3.6 6.9 5.4 12 5.4 3.9 0 7.1-1 9.6-3.1s4.4-5 5.7-8.8c1.3-3.8 1.9-8.8 1.9-15.1.1-5.1-.3-9.3-1.1-12.4zm-8.5 29.9c-2 2.9-4.5 4.3-7.5 4.3s-5.5-1.4-7.5-4.3-3-8.7-3-17.4 1.1-14.7 3.3-17.9c1.8-2.5 4.2-3.8 7.2-3.8s5.6 1.4 7.6 4.3 3 8.6 3 17.4c0 8.7-1 14.5-3.1 17.4zM-52.7 404.5v-34.3H-58l-24.2 34.3v6h23v12.6h6.5v-12.6h7.2v-6h-7.2zm-6.5 0h-16.6l16.6-23.8v23.8z"/><path fill="#2B2A29" d="M-105 298.6c-54.3 0-98.4 44-98.4 98.4 0 54.3 44 98.4 98.4 98.4 54.3 0 98.4-44 98.4-98.4 0-54.3-44.1-98.4-98.4-98.4zm0 193c-52.2 0-94.6-42.3-94.6-94.6s42.3-94.6 94.6-94.6 94.6 42.3 94.6 94.6-42.4 94.6-94.6 94.6z"/></svg>