<?xml version="1.0" encoding="UTF-8"?>
<!DOCTYPE svg PUBLIC "-//W3C//DTD SVG 1.1//EN" "http://www.w3.org/Graphics/SVG/1.1/DTD/svg11.dtd">
<!-- Creator: CorelDRAW X6 -->
<svg xmlns="http://www.w3.org/2000/svg" xml:space="preserve" width="29px" height="20px" version="1.1" style="shape-rendering:geometricPrecision; text-rendering:geometricPrecision; image-rendering:optimizeQuality; fill-rule:evenodd; clip-rule:evenodd"
viewBox="0 0 29000 19929"
 xmlns:xlink="http://www.w3.org/1999/xlink">
 <defs>
  <style type="text/css">
   <![CDATA[
    .fil0 {fill:#2B2A29}
   ]]>
  </style>
 </defs>
 <g id="Layer_x0020_1">
  <metadata id="CorelCorpID_0Corel-Layer"/>
  <path class="fil0" d="M1713 0l25573 0c943,0 1713,770 1713,1713l0 16502c0,942 -770,1713 -1713,1713l-25573 0c-943,0 -1713,-772 -1713,-1713l0 -16502c0,-943 770,-1713 1713,-1713zm16287 10939l0 -1356 1955 0 0 -1955 1358 0 0 1955 1955 0 0 1356 -1955 0 0 1955 -1358 0 0 -1955 -1955 0zm-12073 -3292l0 -1106 2904 -251 0 7248 -1437 0 0 -5891 -1467 0zm5153 3891c0,-386 117,-728 353,-1028 236,-299 555,-530 959,-688 -336,-155 -602,-368 -794,-640 -193,-271 -288,-585 -288,-937 0,-626 214,-1109 645,-1447 431,-338 991,-509 1682,-509 662,0 1200,170 1616,509 413,338 621,821 621,1447 0,352 -93,666 -277,937 -184,272 -439,485 -760,640 389,159 696,389 924,688 230,299 344,641 344,1028 0,662 -230,1177 -691,1548 -460,368 -1051,552 -1770,552 -748,0 -1363,-184 -1844,-552 -481,-371 -722,-885 -722,-1548zm1437 -69c0,323 106,581 316,774 211,193 483,290 813,290 295,0 540,-97 733,-290 193,-193 289,-451 289,-774 0,-317 -99,-577 -296,-781 -200,-204 -444,-307 -734,-307 -322,0 -587,102 -801,307 -213,204 -319,464 -319,781zm231 -3159c0,289 82,523 245,700 167,177 383,267 652,267 238,0 430,-88 573,-263 146,-176 218,-411 218,-703 0,-281 -74,-504 -223,-667 -148,-164 -341,-247 -577,-247 -271,0 -486,80 -648,242 -161,160 -241,384 -241,672zm-11525 -7052l26550 0 0 17414 -26550 0 0 -17414z"/>
 </g>
</svg>
