<?xml version="1.0" encoding="UTF-8"?>
<!DOCTYPE svg PUBLIC "-//W3C//DTD SVG 1.1//EN" "http://www.w3.org/Graphics/SVG/1.1/DTD/svg11.dtd">
<!-- Creator: CorelDRAW X6 -->
<svg xmlns="http://www.w3.org/2000/svg" xml:space="preserve" width="30px" height="30px" version="1.1" style="shape-rendering:geometricPrecision; text-rendering:geometricPrecision; image-rendering:optimizeQuality; fill-rule:evenodd; clip-rule:evenodd"
viewBox="0 0 30000 30000"
 xmlns:xlink="http://www.w3.org/1999/xlink">
 <defs>
  <style type="text/css">
   <![CDATA[
    .fil0 {fill:#898989}
   ]]>
  </style>
 </defs>
 <g id="Layer_x0020_1">
  <metadata id="CorelCorpID_0Corel-Layer"/>
  <path class="fil0" d="M15109 5889c163,-267 341,-526 534,-770l1 0c210,-268 437,-523 680,-762l0 0c91,-89 184,-177 279,-262l1 0 193 -167 0 0c196,-164 400,-320 612,-464l0 0 214 -142 1 0 107 -67 1 0c72,-46 146,-89 221,-131l111 -64 1 0 112 -61 1 0 113 -59 1 0 115 -57 0 0 117 -57 0 0 117 -53 1 0 118 -52 0 0 119 -51 1 0 119 -47 1 0 120 -46 1 0 122 -45 0 0 123 -43 1 0 124 -40 1 0 124 -38 0 0 126 -37 1 0 125 -34 1 0 126 -32 1 0 128 -31 1 0 129 -27 0 0 131 -26 0 0 130 -24 1 0 131 -21 0 0 132 -20 1 0 132 -17 0 0 133 -15 1 0 133 -12 1 0 135 -11 0 0 135 -8 1 0 136 -6 1 0 136 -4 0 0 138 -1 0 0 203 4 1 0 202 7 0 0 202 13 0 0 200 18 0 0 198 22 0 0 197 28 0 0 195 32 0 0 194 37 0 0 193 41 0 0 190 47 0 0 188 51 1 0 185 56 1 0 184 60 0 0 182 64 1 0 180 70 0 0 178 72 1 0 175 77 1 0 174 81 0 0 171 85 0 0 169 90 0 0 167 93 1 0 163 97 1 0 161 100 0 0 159 105 0 0 156 109 0 0 154 112 0 0 150 115 1 0 148 119 0 0 144 123 1 0 141 125 1 0 138 130 1 0 135 132 0 0 132 136 0 0 129 138 1 0 125 142 1 0 122 145 0 0 118 148 1 0 115 151 1 0 111 154 0 0 109 156 0 0 104 159 1 0 100 161 1 0 96 164 1 0 92 168 0 0 90 169 0 0 85 171 0 0 81 175 0 0 77 175 0 0 72 180 1 0 69 180 0 0 64 183 1 0 59 185 0 0 56 187 0 0 51 188 0 0 46 190 1 0 40 193 1 0 37 194 1 0 31 195 1 0 27 197 0 0 22 198 0 0 18 200 1 0 12 202 0 0 7 203 1 0 2 203 0 0c0,130 -4,259 -9,386l-1 20c-371,7330 -10409,14773 -14328,17517l0 0 -231 0 -182 0 -231 0 0 0c-3919,-2744 -13957,-10187 -14328,-17517l-1 -20c-6,-128 -9,-256 -9,-386l0 0 2 -203 1 0 7 -203 0 0 12 -202 1 0 18 -200 0 0 22 -198 0 0 27 -197 1 0 31 -195 1 0 37 -194 1 0 40 -193 1 0 46 -190 0 0 51 -188 0 0 56 -187 0 0 59 -185 1 0 64 -183 0 0 69 -180 1 0 72 -180 0 0 77 -175 0 0 81 -175 0 0 85 -171 0 0 90 -169 0 0 92 -168 1 0 96 -164 1 0 100 -161 1 0 104 -159 0 0 109 -156 0 0 111 -154 1 0 115 -151 1 0 118 -148 0 0 122 -145 1 0 125 -142 1 0 129 -138 0 0 132 -136 0 0 135 -132 1 0 138 -130 1 0 141 -125 1 0 144 -123 0 0 148 -119 1 0 150 -115 0 0 154 -112 0 0 156 -109 0 0 159 -105 0 0 161 -100 1 0 163 -97 1 0 167 -93 0 0 169 -90 0 0 171 -85 0 0 174 -81 1 0 175 -77 1 0 178 -72 0 0 180 -70 1 0 182 -64 0 0 184 -60 1 0 185 -56 1 0 188 -51 0 0 190 -47 0 0 193 -41 0 0 194 -37 0 0 195 -32 0 0 197 -28 0 0 198 -22 0 0 200 -18 0 0 202 -13 0 0 202 -7 1 0 203 -4 0 0 138 1 0 0 136 4 1 0 136 6 1 0 135 8 0 0 135 11 1 0 133 12 1 0 133 15 0 0 132 17 1 0 132 20 0 0 131 21 1 0 130 24 0 0 131 26 0 0 129 27 1 0 128 31 1 0 126 32 1 0 125 34 1 0 126 37 0 0 124 38 1 0 124 40 1 0 123 43 0 0 122 45 1 0 120 46 1 0 119 47 1 0 119 51 0 0 118 52 1 0 117 53 0 0 117 57 0 0 115 57 1 0 113 59 1 0 112 61 1 0 111 64c74,43 149,85 221,131l1 0 107 67 1 0 214 142 0 0c211,144 416,300 612,464l0 0 193 167 1 0c94,85 188,174 279,262l0 0c243,239 470,494 680,762l1 0c193,244 371,503 534,770z"/>
 </g>
</svg>
