<?xml version="1.0" encoding="UTF-8"?>
<!DOCTYPE svg PUBLIC "-//W3C//DTD SVG 1.1//EN" "http://www.w3.org/Graphics/SVG/1.1/DTD/svg11.dtd">
<!-- Creator: CorelDRAW X6 -->
<svg xmlns="http://www.w3.org/2000/svg" xml:space="preserve" width="40px" height="32px" version="1.1" style="shape-rendering:geometricPrecision; text-rendering:geometricPrecision; image-rendering:optimizeQuality; fill-rule:evenodd; clip-rule:evenodd"
viewBox="0 0 40000 31441"
 xmlns:xlink="http://www.w3.org/1999/xlink">
 <defs>
  <style type="text/css">
   <![CDATA[
    .fil0 {fill:#2B2A29}
   ]]>
  </style>
 </defs>
 <g id="Layer_x0020_1">
  <metadata id="CorelCorpID_0Corel-Layer"/>
  <path class="fil0" d="M658 319l24995 0 -2554 2554 -19995 0c-302,0 -550,247 -550,550l0 24916c0,302 247,550 550,550l4717 0 13247 0 6952 0c302,0 550,-247 550,-550l0 -3919 2553 -1916 0 8281c0,361 -295,657 -657,657l-29808 0c-363,0 -658,-295 -658,-657l0 -29808c0,-363 295,-658 658,-658zm27883 -319l0 4835c0,0 -5461,-270 -10564,5908 -3915,4738 -4142,10793 -4035,13356l652 0c969,-2344 3343,-7279 9828,-8522 4209,-805 4119,-626 4119,-626l0 4923 11459 -9758 -11459 -10116z"/>
 </g>
</svg>
