<?xml version="1.0" encoding="utf-8"?>
<!-- Generator: Adobe Illustrator 18.1.1, SVG Export Plug-In . SVG Version: 6.00 Build 0)  -->
<svg version="1.1" id="Layer_1" xmlns="http://www.w3.org/2000/svg" xmlns:xlink="http://www.w3.org/1999/xlink" x="0px" y="0px"
	 viewBox="0 0 800 738" enable-background="new 0 0 800 738" xml:space="preserve">
<path fill="none" d="M798,26.2H272.6c-1,0-2,0.8-2,2v46.8c0,1,0.8,2,2,2H798c1,0,2-0.8,2-2V28.2C800,27.1,799.2,26.2,798,26.2z"/>
<path fill="none" d="M272.6,161.7h261.6c1,0,2-0.8,2-2v-46.8c0-1-0.8-2-2-2H272.6c-1,0-2,0.8-2,2v46.8
	C270.6,160.9,271.4,161.7,272.6,161.7z"/>
<path fill="none" d="M798,301.2H272.6c-1,0-2,0.8-2,2v46.8c0,1,0.8,2,2,2H798c1,0,2-0.8,2-2v-46.8C800,302.1,799.2,301.2,798,301.2z
	"/>
<path fill="none" d="M272.6,436.8h261.6c1,0,2-0.8,2-2v-46.8c0-1-0.8-2-2-2H272.6c-1,0-2,0.8-2,2v46.8
	C270.6,435.9,271.4,436.8,272.6,436.8z"/>
<path fill="none" d="M798,576.3H272.6c-1,0-2,0.8-2,2v46.8c0,1,0.8,2,2,2H798c1,0,2-0.8,2-2v-46.8C800,577.1,799.2,576.3,798,576.3z
	"/>
<path fill="none" d="M534.2,661.1H272.6c-1,0-2,0.8-2,2v46.8c0,1,0.8,2,2,2h261.6c1,0,2-0.8,2-2v-46.8
	C536,661.9,535.2,661.1,534.2,661.1z"/>
<path fill="none" d="M86.2,100.3L44,57.8L0,101.6L42.2,144L86,188l44-43.7L230.7,44L187,0L86.2,100.3z"/>
<path fill="none" d="M86.2,375.3L44,332.8L0,376.6L42.2,419L86,463l44-43.7L230.7,319L187,275L86.2,375.3z"/>
<path fill="none" d="M86.2,650.3L44,607.8L0,651.6L42.2,694L86,738l44-43.8L230.7,594L187,550L86.2,650.3z"/>
</svg>
