<?xml version="1.0" encoding="utf-8"?>
<!-- Generator: Adobe Illustrator 18.1.1, SVG Export Plug-In . SVG Version: 6.00 Build 0)  -->
<svg version="1.1" id="Layer_1" xmlns="http://www.w3.org/2000/svg" xmlns:xlink="http://www.w3.org/1999/xlink" x="0px" y="0px"
	 viewBox="0 0 800 800" enable-background="new 0 0 800 800" xml:space="preserve">
<path fill="none" d="M748.2,52c-68.9-69-180.9-69-249.8,0l-458,457.6c-3.6,3.6-5.8,8.2-6.5,13.1L0,773.9c-1,7.2,1.5,14.3,6.5,19.3
	c4.3,4.3,10.2,6.8,16.2,6.8c1,0,2,0,3.1-0.2l151.4-20.5c12.6-1.7,21.5-13.3,19.8-25.9c-1.7-12.6-13.3-21.5-25.9-19.8L49.6,750.1
	l23.7-175.2l184.5,184.4c4.3,4.3,10.2,6.8,16.2,6.8c6,0,11.9-2.4,16.2-6.8l458-457.6C781.6,268.3,800,224,800,176.8
	C800,129.6,781.6,85.3,748.2,52z M507.3,108.3l76.9,76.9L166.3,602.8L89.4,526L507.3,108.3z M274.2,710.5L199,635.4l417.9-417.7
	l75.2,75.2L274.2,710.5z M724.1,259.9l-184-183.9c23.4-19.3,52.5-29.8,83.2-29.8c35,0,67.7,13.6,92.4,38.2
	c24.7,24.5,38.2,57.4,38.2,92.4C754,207.6,743.4,236.6,724.1,259.9z"/>
</svg>
