<?xml version="1.0" encoding="UTF-8"?>
<!DOCTYPE svg PUBLIC "-//W3C//DTD SVG 1.1//EN" "http://www.w3.org/Graphics/SVG/1.1/DTD/svg11.dtd">
<!-- Creator: CorelDRAW X6 -->
<svg xmlns="http://www.w3.org/2000/svg" xml:space="preserve" width="30px" height="30px" version="1.1" style="shape-rendering:geometricPrecision; text-rendering:geometricPrecision; image-rendering:optimizeQuality; fill-rule:evenodd; clip-rule:evenodd"
viewBox="0 0 30000 30000"
 xmlns:xlink="http://www.w3.org/1999/xlink">
 <defs>
  <style type="text/css">
   <![CDATA[
    .fil0 {fill:#EFB758}
   ]]>
  </style>
 </defs>
 <g id="Layer_x0020_1">
  <metadata id="CorelCorpID_0Corel-Layer"/>
  <path class="fil0" d="M13690 26826l2620 0 0 0 9282 0 0 0 2 0 0 0 7 -1 0 0 12 -6 1 0 15 -4 2 0 18 -7 2 0 25 -9 0 0 30 -12 0 0 32 -11 0 0 38 -15 0 0 41 -15 0 0 43 -19 2 0 46 -18 0 0 51 -22 0 0 53 -25 1 0 57 -26 0 0 58 -28 0 0 61 -30 0 0 66 -32 0 0 65 -37 0 0 70 -35 0 0 70 -39 1 0 71 -43 0 0 76 -44 0 0 74 -47 0 0 77 -48 0 0 79 -51 0 0 79 -54 1 0 79 -56 1 0 81 -60 0 0 80 -61 0 0 83 -66 0 0 81 -67 0 0 83 -70 0 0 83 -72 0 0 83 -77 0 0 81 -79 0 0 83 -83 0 0 80 -84 0 0 81 -89 0 0 78 -91 0 0 79 -94 0 0 77 -99 0 0 77 -99 0 0 73 -105 0 0 73 -106 0 0 71 -111 0 0 69 -113 0 0 66 -118 0 0 66 -120 0 0 61 -125 0 0 60 -128 0 0 56 -132 0 0 54 -136 0 0 51 -138 0 0 48 -143 0 0 44 -148 1 0 40 -150 1 0 35 -154 2 0 32 -159 0 0 30 -161 0 0 26 -167 0 0 21 -169 0 0 17 -174 0 0 13 -181 0 0c4,-59 6,-119 6,-181 0,-63 -2,-122 -4,-185l-2 0c-1,-63 -6,-124 -13,-188l0 0c-6,-64 -13,-128 -22,-191l-1 0c-9,-65 -19,-129 -31,-195l-1 0 -41 -196 0 0 -50 -198 0 0 -58 -203 0 0 -65 -202 0 0 -73 -204 -2 0 -80 -206 0 0 -87 -208 0 0 -96 -210 -2 0 -102 -208 0 0 -107 -211 -2 0 -115 -210 0 0 -122 -211 0 0 -128 -211 0 0 -132 -211 -2 0 -137 -210 0 0 -144 -211 0 0 -148 -210 0 0 -154 -209 0 0 -157 -208 0 0 -162 -207 -1 0 -165 -206 0 0 -169 -204 -1 0 -172 -203 0 0 -176 -198 0 0 -178 -198 -1 0 -182 -195 0 0 -184 -193 0 0 -185 -191 -1 0 -188 -185 0 0 -191 -183 0 0 -190 -182 0 0 -194 -176 0 0 -193 -172 -2 0 -193 -169 -2 0 -195 -164 0 0 -194 -162 0 0 -195 -155 -2 0 -195 -152 0 0 -195 -144 0 0 -195 -142 0 0 -193 -136 0 0 -194 -129 0 0 -190 -124 0 0 -189 -118 0 0 -188 -112 0 0 -185 -105 0 0 -182 -99 0 0 -180 -91 0 0 -178 -85 -1 -1 -5 -2c-71,-44 -822,-490 -2368,-823l-8405 0c-1306,260 -2189,644 -2895,1102l-185 105 0 0 -188 112 0 0 -189 118 0 0 -190 124 0 0 -194 129 0 0 -193 136 0 0 -195 142 0 0 -195 144 0 0 -195 152 -2 0 -195 155 0 0 -194 162 0 0 -195 164 -2 0 -193 169 -2 0 -193 172 0 0 -194 176 0 0 -190 182 0 0 -191 183 0 0 -188 185 -1 0 -185 191 0 0 -184 193 0 0 -182 195 -1 0 -178 198 0 0 -176 198 0 0 -172 203 -1 0 -169 204 0 0 -165 206 -1 0 -162 207 0 0 -157 208 0 0 -154 209 0 0 -148 210 0 0 -144 211 0 0 -137 210 -2 0 -132 211 0 0 -128 211 0 0 -122 211 0 0 -115 210 -2 0 -107 211 0 0 -102 208 -2 0 -96 210 0 0 -87 208 0 0 -80 206 -2 0 -73 204 0 0 -65 202 0 0 -58 203 0 0 -50 198 0 0 -41 196 -1 0c-12,66 -21,130 -31,195l-1 0c-7,64 -17,128 -22,191l0 0 -13 188 -2 0c-1,64 -4,123 -4,185 0,61 2,122 6,181l0 0 13 181 0 0 17 174 0 0 21 169 0 0 26 167 0 0 30 161 0 0 32 159 2 0 35 154 1 0 40 150 1 0 44 148 0 0 48 143 0 0 51 138 0 0 54 136 0 0 56 132 0 0 60 128 0 0 61 125 0 0 66 120 0 0 66 118 0 0 69 113 0 0 71 111 0 0 73 106 0 0 73 105 0 0 77 99 0 0 77 99 0 0 79 94 0 0 78 91 0 0 81 89 0 0 80 84 0 0 83 83 0 0 81 79 0 0 83 77 0 0 83 72 0 0 83 70 0 0 81 67 0 0 83 66 0 0 80 61 0 0 81 60 1 0 79 56 1 0 79 54 0 0 79 51 0 0 77 48 0 0 74 47 0 0 76 44 0 0 71 43 1 0 70 39 0 0 70 35 0 0 65 37 0 0 66 32 0 0 61 30 0 0 58 28 0 0 57 26 1 0 53 25 0 0 51 22 0 0 46 18 2 0 43 19 0 0 41 15 0 0 38 15 0 0 32 11 0 0 30 12 0 0 25 9 2 0 18 7 2 0 15 4 1 0 12 6 0 0 7 1 0 0 2 0 0 0 9282 0 0 0zm7877 -14524l0 0zm-20790 9295c-1,64 -4,123 -4,185m2306 -9612c2033,-363 4139,-2249 10160,-2249l40 0 187 0 53 0 142 0 130 0 71 0 193 0 13 0 211 0 34 0 185 0 65 0 159 0 86 0 144 0 94 0 144 0 86 0 159 0 65 0 185 0 34 0 211 0 13 0 193 0 71 0 130 0 142 0 53 0 187 0 40 0c986,0 1866,51 2657,137l1 0c4049,439 5802,1808 7501,2112 1502,268 2944,-1906 839,-3326 -1730,-1167 -4240,-1540 -5992,-1652l0 -2424c0,-879 -718,-1596 -1596,-1596l0 0c-879,0 -1598,717 -1598,1596l0 2395 -7148 0 0 -2395c0,-879 -719,-1596 -1598,-1596l0 0c-878,0 -1596,717 -1596,1596l0 2424c-1752,112 -4261,485 -5992,1652 -2106,1420 -664,3594 839,3326z"/>
 </g>
</svg>
