<?xml version="1.0" encoding="UTF-8"?>
<!DOCTYPE svg PUBLIC "-//W3C//DTD SVG 1.1//EN" "http://www.w3.org/Graphics/SVG/1.1/DTD/svg11.dtd">
<!-- Creator: CorelDRAW X6 -->
<svg xmlns="http://www.w3.org/2000/svg" xml:space="preserve" width="30px" height="30px" version="1.1" style="shape-rendering:geometricPrecision; text-rendering:geometricPrecision; image-rendering:optimizeQuality; fill-rule:evenodd; clip-rule:evenodd"
viewBox="0 0 30000 30000"
 xmlns:xlink="http://www.w3.org/1999/xlink">
 <defs>
  <style type="text/css">
   <![CDATA[
    .fil0 {fill:#B32F69}
   ]]>
  </style>
 </defs>
 <g id="Layer_x0020_1">
  <metadata id="CorelCorpID_0Corel-Layer"/>
  <path class="fil0" d="M15000 2063c7984,0 14457,4980 14457,11124 0,2101 -758,4067 -2074,5743l0 0 702 9008 -7398 -4117c0,0 -2128,834 -5409,834 -3547,0 -7684,-1431 -10509,-3611l-6 -4c-150,-98 -266,-193 -354,-286 -2395,-1985 -3862,-4644 -3862,-7567 0,-6144 6472,-11124 14456,-11124zm-8036 14887l8036 0 0 -2646 -8036 0 0 2646zm0 -7806l16074 0 0 2646 -16074 0 0 -2646z"/>
 </g>
</svg>
