<?xml version="1.0" encoding="UTF-8"?>
<!DOCTYPE svg PUBLIC "-//W3C//DTD SVG 1.1//EN" "http://www.w3.org/Graphics/SVG/1.1/DTD/svg11.dtd">
<!-- Creator: CorelDRAW X6 -->
<svg xmlns="http://www.w3.org/2000/svg" xml:space="preserve" width="30px" height="30px" version="1.1" style="shape-rendering:geometricPrecision; text-rendering:geometricPrecision; image-rendering:optimizeQuality; fill-rule:evenodd; clip-rule:evenodd"
viewBox="0 0 30000 30000"
 xmlns:xlink="http://www.w3.org/1999/xlink">
 <defs>
  <style type="text/css">
   <![CDATA[
    .fil0 {fill:#666}
   ]]>
  </style>
 </defs>
 <g id="Layer_x0020_1">
  <metadata id="CorelCorpID_0Corel-Layer"/>
  <path class="fil0" d="M3657 3657c4344,-4343 11386,-4343 15730,0 4031,4031 4319,10387 869,14751l9345 9345 -1848 1847 -9344 -9344c-4365,3450 -10721,3162 -14752,-869 -4343,-4344 -4343,-11386 0,-15730zm1478 1478c3528,-3527 9247,-3527 12775,0 3527,3528 3527,9247 0,12775 -3528,3527 -9247,3527 -12775,0 -3527,-3528 -3527,-9247 0,-12775z"/>
 </g>
</svg>
