<?xml version="1.0" encoding="utf-8"?>
<!-- Generator: Adobe Illustrator 18.1.1, SVG Export Plug-In . SVG Version: 6.00 Build 0)  -->
<svg version="1.1" id="Layer_1" xmlns="http://www.w3.org/2000/svg" xmlns:xlink="http://www.w3.org/1999/xlink" x="0px" y="0px"
	 viewBox="-205 297 200 200" enable-background="new -205 297 200 200" xml:space="preserve">
<path fill="#2B2A29" d="M-135,404.5v-34.3h-5.3l-24.2,34.3v6h23v12.6h6.5v-12.6h7.2v-6H-135z M-141.5,404.5h-16.6l16.6-23.8V404.5z"
	/>
<path fill="#2B2A29" d="M-87.9,384.5c-0.8-3.1-1.9-5.7-3.3-7.9c-1.4-2.2-3.2-3.8-5.3-5c-2.2-1.1-4.6-1.7-7.5-1.7c-3.8,0-7,1-9.6,3.1
	c-2.5,2.1-4.4,5-5.7,8.8c-1.3,3.8-1.9,8.9-1.9,15.1v0c0,9.9,1.7,17.1,5.2,21.6c2.9,3.6,6.9,5.4,12,5.4c3.9,0,7.1-1,9.6-3.1
	c2.5-2.1,4.4-5,5.7-8.8c1.3-3.8,1.9-8.8,1.9-15.1C-86.7,391.8-87.1,387.6-87.9,384.5z M-96.4,414.4c-2,2.9-4.5,4.3-7.5,4.3
	c-3,0-5.5-1.4-7.5-4.3c-2-2.9-3-8.7-3-17.4l0,0c0-8.7,1.1-14.7,3.3-17.9c1.8-2.5,4.2-3.8,7.2-3.8c3,0,5.6,1.4,7.6,4.3
	c2,2.9,3,8.6,3,17.4C-93.3,405.7-94.3,411.5-96.4,414.4z"/>
<path fill="#2B2A29" d="M-52.7,404.5v-34.3H-58l-24.2,34.3v6h23v12.6h6.5v-12.6h7.2v-6H-52.7z M-59.2,404.5h-16.6l16.6-23.8V404.5z"
	/>
<path fill="#2B2A29" d="M-105,298.6c-54.3,0-98.4,44-98.4,98.4c0,54.3,44,98.4,98.4,98.4c54.3,0,98.4-44,98.4-98.4
	C-6.6,342.7-50.7,298.6-105,298.6z M-105,491.6c-52.2,0-94.6-42.3-94.6-94.6s42.3-94.6,94.6-94.6s94.6,42.3,94.6,94.6
	S-52.8,491.6-105,491.6z"/>
</svg>
