<svg xmlns="http://www.w3.org/2000/svg" width="30" height="30" viewBox="0 0 30000 30000" shape-rendering="geometricPrecision" text-rendering="geometricPrecision" image-rendering="optimizeQuality" fill-rule="evenodd" clip-rule="evenodd"><defs><style>.fil0{fill:#666}</style></defs><path class="fil0" d="M3657 3657c4344-4343 11386-4343 15730 0 4031 4031 4319 10387 869 14751l9345 9345-1848 1847-9344-9344c-4365 3450-10721 3162-14752-869-4343-4344-4343-11386 0-15730zm1478 1478c3528-3527 9247-3527 12775 0 3527 3528 3527 9247 0 12775-3528 3527-9247 3527-12775 0-3527-3528-3527-9247 0-12775z" id="Layer_x0020_1"/></svg>