<svg xmlns="http://www.w3.org/2000/svg" width="40" height="32" viewBox="0 0 40000 31441" shape-rendering="geometricPrecision" text-rendering="geometricPrecision" image-rendering="optimizeQuality" fill-rule="evenodd" clip-rule="evenodd"><defs><style>.fil0{fill:#fff}</style></defs><path class="fil0" d="M658 319h24995l-2554 2554H3104c-302 0-550 247-550 550v24916c0 302 247 550 550 550h24916c302 0 550-247 550-550v-3919l2553-1916v8281c0 361-295 657-657 657H658c-363 0-658-295-658-657V977c0-363 295-658 658-658zM28541 0v4835s-5461-270-10564 5908c-3915 4738-4142 10793-4035 13356h652c969-2344 3343-7279 9828-8522 4209-805 4119-626 4119-626v4923l11459-9758L28541 0z" id="Layer_x0020_1"/></svg>