<svg xmlns="http://www.w3.org/2000/svg" width="30" height="30" viewBox="0 0 30000 30000" shape-rendering="geometricPrecision" text-rendering="geometricPrecision" image-rendering="optimizeQuality" fill-rule="evenodd" clip-rule="evenodd"><defs><style>.fil0{fill:#aaaaaa}</style></defs><path class="fil0" d="M503 14967l18 33-18 33h35c1139 2069 5820 9476 14604 9476 8875 0 13312-7512 14320-9476h34l-17-33 17-33h-34c-1007-1964-5445-9476-14320-9476-8784 0-13466 7407-14604 9476h-35zm14497-5164c2870 0 5197 2327 5197 5197s-2327 5197-5197 5197-5197-2327-5197-5197 2327-5197 5197-5197zm3379 5197v-33c0-1879-1524-3404-3403-3404s-3404 1525-3404 3404l1 33-1 33c0 1879 1525 3404 3404 3404s3403-1525 3403-3404v-33z" id="Layer_x0020_1"/></svg>