<?xml version="1.0" encoding="UTF-8"?><!DOCTYPE svg PUBLIC "-//W3C//DTD SVG 1.1//EN" "http://www.w3.org/Graphics/SVG/1.1/DTD/svg11.dtd"><svg xmlns="http://www.w3.org/2000/svg" style="display: none;"><defs><style>.fil0{fill:#2b2a29}</style><style>.fil0{fill:#f01846}</style><style>.fil0{fill:#2b2a29}</style><style>.fil0{fill:#b32f69}</style><style>.fil0{fill:#898989}</style><style>.fil0{fill:#898989}</style><style>.fil0{fill:#c5c6c6}</style><style>.fil0{fill:#898989}</style><style>.fil0{fill:#212121}</style><style>.fil0{fill:#c5c6c6}</style><style>.fil0{fill:#2b2a29}</style><style>.fil0{fill:#b43069}</style><style>.fil0{fill:#c5c6c6}</style><style>.fil0{fill:#898989}</style><style>.fil0{fill:#efb758}</style></defs><symbol id="404" viewBox="0 0 200000 200000"><path class="fil0" d="M100000 1626c54331 0 98374 44042 98374 98374 0 54331-44042 98374-98374 98374-54331 0-98374-44042-98374-98374 0-54331 44042-98374 98374-98374zM63537 126136v-12644H40543v-5988l24177-34307h5323v34307h7172v5988h-7172v12644h-6507zm0-18632V83685l-16598 23819h16598zm20346-7492c0-6248 640-11301 1922-15121 1293-3833 3204-6777 5743-8836 2526-2057 5718-3080 9562-3080 2835 0 5323 567 7480 1713 2144 1147 3919 2798 5298 4954 1380 2145 2465 4769 3253 7863 802 3093 1196 7270 1196 12508 0 6210-641 11237-1911 15058-1269 3833-3178 6777-5718 8848-2525 2069-5730 3105-9599 3105-5089 0-9095-1812-12002-5447-3488-4435-5224-11620-5224-21564zm6653 24c0 8713 1011 14504 3044 17364 2034 2871 4547 4300 7530 4300 2982 0 5496-1442 7530-4313 2033-2883 3044-8662 3044-17351 0-8712-1011-14503-3044-17362-2021-2871-4560-4300-7604-4300-2982 0-5372 1269-7159 3795-2231 3216-3340 9181-3340 17868zm55243 26100v-12644h-22994v-5988l24177-34307h5323v34307h7172v5988h-7172v12644h-6507zm0-18632V83685l-16598 23819h16598zM100000 5409c52241 0 94591 42350 94591 94591s-42350 94591-94591 94591-94591-42350-94591-94591S47759 5409 100000 5409z" id="Layer_x0020_1"/></symbol><symbol id="accept" viewBox="0 0 512000 512000"><path class="fil0" d="M154287 384509l45597 45597 182-182-182 182c100872-100871 201744-201742 302615-302615l-45597-45597-256836 256835L55092 193755 9495 239352l144974 144975-182 182z" id="Layer_x0020_1"/></symbol><symbol id="adult" viewBox="0 0 29000 19929"><path class="fil0" d="M1713 0h25573c943 0 1713 770 1713 1713v16502c0 942-770 1713-1713 1713H1713c-943 0-1713-772-1713-1713V1713C0 770 770 0 1713 0zm16287 10939V9583h1955V7628h1358v1955h1955v1356h-1955v1955h-1358v-1955h-1955zM5927 7647V6541l2904-251v7248H7394V7647H5927zm5153 3891c0-386 117-728 353-1028 236-299 555-530 959-688-336-155-602-368-794-640-193-271-288-585-288-937 0-626 214-1109 645-1447s991-509 1682-509c662 0 1200 170 1616 509 413 338 621 821 621 1447 0 352-93 666-277 937-184 272-439 485-760 640 389 159 696 389 924 688 230 299 344 641 344 1028 0 662-230 1177-691 1548-460 368-1051 552-1770 552-748 0-1363-184-1844-552-481-371-722-885-722-1548zm1437-69c0 323 106 581 316 774 211 193 483 290 813 290 295 0 540-97 733-290s289-451 289-774c0-317-99-577-296-781-200-204-444-307-734-307-322 0-587 102-801 307-213 204-319 464-319 781zm231-3159c0 289 82 523 245 700 167 177 383 267 652 267 238 0 430-88 573-263 146-176 218-411 218-703 0-281-74-504-223-667-148-164-341-247-577-247-271 0-486 80-648 242-161 160-241 384-241 672zM1223 1258h26550v17414H1223V1258z" id="Layer_x0020_1"/></symbol><symbol id="comment-round" viewBox="0 0 30000 30000"><path class="fil0" d="M15000 2063c7984 0 14457 4980 14457 11124 0 2101-758 4067-2074 5743l702 9008-7398-4117s-2128 834-5409 834c-3547 0-7684-1431-10509-3611l-6-4c-150-98-266-193-354-286-2395-1985-3862-4644-3862-7567 0-6144 6472-11124 14456-11124zM6964 16950h8036v-2646H6964v2646zm0-7806h16074v2646H6964V9144z" id="Layer_x0020_1"/></symbol><symbol id="comment" viewBox="0 0 30000 30000"><path class="fil0" d="M29679 29135V3569c0-1488-1217-2705-2705-2705H3026C1538 864 321 2081 321 3569v16693c0 1487 1217 2705 2705 2705h19022l7631 6169zM6242 7370h17515v3002H6242V7370zm0 6338h8758v3004H6242v-3004z" id="Layer_x0020_1"/></symbol><symbol id="find" viewBox="0 0 30000 30000"><path class="fil0" d="M3657 3657c4344-4343 11386-4343 15730 0 4031 4031 4319 10387 869 14751l9345 9345-1848 1847-9344-9344c-4365 3450-10721 3162-14752-869-4343-4344-4343-11386 0-15730zm1478 1478c3528-3527 9247-3527 12775 0 3527 3528 3527 9247 0 12775-3528 3527-9247 3527-12775 0-3527-3528-3527-9247 0-12775z" id="Layer_x0020_1"/></symbol><symbol id="letter" viewBox="0 0 30000 30000"><path class="fil0" d="M28774 7783v16925H1226V7783l13652 10919L28774 7783zM1105 5292h27790L14817 16274 1104 5292z" id="Layer_x0020_1"/></symbol><symbol id="like" viewBox="0 0 30000 30000"><path class="fil0" d="M15109 5889c163-267 341-526 534-770h1c210-268 437-523 680-762 91-89 184-177 279-262h1l193-167c196-164 400-320 612-464l214-142h1l107-67h1c72-46 146-89 221-131l111-64h1l112-61h1l113-59h1l115-57 117-57 117-53h1l118-52 119-51h1l119-47h1l120-46h1l122-45 123-43h1l124-40h1l124-38 126-37h1l125-34h1l126-32h1l128-31h1l129-27 131-26 130-24h1l131-21 132-20h1l132-17 133-15h1l133-12h1l135-11 135-8h1l136-6h1l136-4 138-1 203 4h1l202 7 202 13 200 18 198 22 197 28 195 32 194 37 193 41 190 47 188 51h1l185 56h1l184 60 182 64h1l180 70 178 72h1l175 77h1l174 81 171 85 169 90 167 93h1l163 97h1l161 100 159 105 156 109 154 112 150 115h1l148 119 144 123h1l141 125h1l138 130h1l135 132 132 136 129 138h1l125 142h1l122 145 118 148h1l115 151h1l111 154 109 156 104 159h1l100 161h1l96 164h1l92 168 90 169 85 171 81 175 77 175 72 180h1l69 180 64 183h1l59 185 56 187 51 188 46 190h1l40 193h1l37 194h1l31 195h1l27 197 22 198 18 200h1l12 202 7 203h1l2 203c0 130-4 259-9 386l-1 20c-371 7330-10409 14773-14328 17517h-644C10863 25169 825 17726 454 10396l-1-20c-6-128-9-256-9-386l2-203h1l7-203 12-202h1l18-200 22-198 27-197h1l31-195h1l37-194h1l40-193h1l46-190 51-188 56-187 59-185h1l64-183 69-180h1l72-180 77-175 81-175 85-171 90-169 92-168h1l96-164h1l100-161h1l104-159 109-156 111-154h1l115-151h1l118-148 122-145h1l125-142h1l129-138 132-136 135-132h1l138-130h1l141-125h1l144-123 148-119h1l150-115 154-112 156-109 159-105 161-100h1l163-97h1l167-93 169-90 171-85 174-81h1l175-77h1l178-72 180-70h1l182-64 184-60h1l185-56h1l188-51 190-47 193-41 194-37 195-32 197-28 198-22 200-18 202-13 202-7h1l203-4 138 1 136 4h1l136 6h1l135 8 135 11h1l133 12h1l133 15 132 17h1l132 20 131 21h1l130 24 131 26 129 27h1l128 31h1l126 32h1l125 34h1l126 37 124 38h1l124 40h1l123 43 122 45h1l120 46h1l119 47h1l119 51 118 52h1l117 53 117 57 115 57h1l113 59h1l112 61h1l111 64c74 43 149 85 221 131h1l107 67h1l214 142c211 144 416 300 612 464l193 167h1c94 85 188 174 279 262 243 239 470 494 680 762h1c193 244 371 503 534 770z" id="Layer_x0020_1"/></symbol><symbol id="logo" viewBox="0 0 293000 57000"><path class="fil0" d="M4991 10166l5215 1152 17 36930-5203 1143-57 5771c5083 686 18483 265 24417 259 22644-27 23634-22260 10037-26565 2824-2503 7006-3820 6780-11426-174-5790-3462-9331-7558-11170-5596-2512-26896-3005-33668-1851l20 5758zm217178-1565l2500 156 5058-26 2297-223-9-7266-9846-254v7613zm-5470 14900c6750 1867 5835-2374 5470 22428l-70 2373-4808 1033-81 5907 19766 178c20-8043 185-5459-2537-6594-3123-1303-1224 633-2424-1631V17703l-15243-228-72 6026zm24063-107l5383 1161-30 23747-4808 1033-81 5907 19766 178c20-8043 185-5459-2537-6594-1916-798-2424 302-2424-2897 0-21849-1285-18326 10175-19840l1025-8726c-10347 350-8172 2785-11412 5085l-455-4741-14577-230-26 5917zm-109217-6175l-5443 326 1 6736 5446 243c-17 23287-3425 34008 17652 30686l-602-6121c-2080-1459-4486-246-6086-1902-1838-1902-961-19341-961-22478l6515-436-2-6652-6519-328 6-9011h-10023l17 8935zm136202-9543l5290 1104-7 39362c-5394 2192-4892-736-4892 7279h19873c9-7638 632-5239-4961-7194l-14-47242-15363 26 73 6665zM112160 46758c-2844 2335-4336 2877-8738 2206-6138-934-2212-4260-5785-6242h-5885l74 7639c4319 8069 25793 7661 29488-2243 2714-7276-2200-11720-7260-13567-4354-1589-15540-1963-12758-8196 1330-2533 4348-3172 8112-2360 4126 889 3917 2379 4411 6399h6789l-58-8523c-3855-6937-25586-7597-28853 3541-3508 11958 10208 13376 15765 15111 3617 1129 5047 1916 4698 6234zm-28032 4870l-2261-5799c-3568 921-17526 7762-19230-6213l22580-24c0-11078-1359-19550-11020-22114-22113-5869-28440 25031-14878 35181 6356 4756 19201 4375 24808-1031zM62657 32612l12887 7c-599-11311-11290-10719-12887-7zm149596 16484V30060l-17260 25 1 6989 7247 821 7 8409c-7670 5118-25114 2440-22015-21086 1717-13039 12418-16218 20374-12808 3507 1504 3250 4064 3914 8185l7376 117V10494c-6415-5396-17595-9770-28262-5046-18058 7998-18421 40349-451 48496 8350 3785 25116 1974 29067-4848zM20338 47662c8072 61 17836 1752 17771-7426-69-9795-8923-7684-17816-7584l45 15010zm-67-22008c7423 83 16107 1463 15945-6944-151-7897-8714-6854-15713-6798l-231 13742z" id="Layer_x0020_1"/></symbol><symbol id="rating" viewBox="0 0 30000 30000"><path class="fil0" d="M12116 502h5769v28996h-5769V502zM3505 12195h5767v17303H3505V12195zm17224-5846h5767v23150h-5767V6349z" id="Layer_x0020_1"/></symbol><symbol id="share" viewBox="0 0 40000 31441"><path class="fil0" d="M658 319h24995l-2554 2554H3104c-302 0-550 247-550 550v24916c0 302 247 550 550 550h24916c302 0 550-247 550-550v-3919l2553-1916v8281c0 361-295 657-657 657H658c-363 0-658-295-658-657V977c0-363 295-658 658-658zM28541 0v4835s-5461-270-10564 5908c-3915 4738-4142 10793-4035 13356h652c969-2344 3343-7279 9828-8522 4209-805 4119-626 4119-626v4923l11459-9758L28541 0z" id="Layer_x0020_1"/></symbol><symbol id="star-favorite" viewBox="0 0 30000 30000"><path class="fil0" d="M15000 844l4316 9709 10568 1106-7900 7104 2216 10393-9200-5318-9200 5318 2216-10393-7900-7104 10568-1106z" id="Layer_x0020_1"/></symbol><symbol id="user" viewBox="0 0 30000 30000"><path class="fil0" d="M1473 29489h27291s-357-4172-4052-6317c-3696-2145-7506-1787-6673-4648 927-3193 4237-2975 4492-9206 200-4860-3372-8807-7531-8807-4160 0-7735 3947-7532 8807 255 6111 3555 5986 4493 9206 833 2861-2978 2503-6673 4648-3696 2145-4052 6317-4052 6317h237z" id="Layer_x0020_1"/></symbol><symbol id="visible" viewBox="0 0 30000 30000"><path class="fil0" d="M503 14967l18 33-18 33h35c1139 2069 5820 9476 14604 9476 8875 0 13312-7512 14320-9476h34l-17-33 17-33h-34c-1007-1964-5445-9476-14320-9476-8784 0-13466 7407-14604 9476h-35zm14497-5164c2870 0 5197 2327 5197 5197s-2327 5197-5197 5197-5197-2327-5197-5197 2327-5197 5197-5197zm3379 5197v-33c0-1879-1524-3404-3403-3404s-3404 1525-3404 3404l1 33-1 33c0 1879 1525 3404 3404 3404s3403-1525 3403-3404v-33z" id="Layer_x0020_1"/></symbol><symbol id="wallet" viewBox="0 0 30000 30000"><path class="fil0" d="M13690 26826h11904l7-1 12-6h1l15-4h2l18-7h2l25-9 30-12 32-11 38-15 41-15 43-19h2l46-18 51-22 53-25h1l57-26 58-28 61-30 66-32 65-37 70-35 70-39h1l71-43 76-44 74-47 77-48 79-51 79-54h1l79-56h1l81-60 80-61 83-66 81-67 83-70 83-72 83-77 81-79 83-83 80-84 81-89 78-91 79-94 77-99 77-99 73-105 73-106 71-111 69-113 66-118 66-120 61-125 60-128 56-132 54-136 51-138 48-143 44-148h1l40-150h1l35-154h2l32-159 30-161 26-167 21-169 17-174 13-181c4-59 6-119 6-181 0-63-2-122-4-185h-2c-1-63-6-124-13-188-6-64-13-128-22-191h-1c-9-65-19-129-31-195h-1l-41-196-50-198-58-203-65-202-73-204h-2l-80-206-87-208-96-210h-2l-102-208-107-211h-2l-115-210-122-211-128-211-132-211h-2l-137-210-144-211-148-210-154-209-157-208-162-207h-1l-165-206-169-204h-1l-172-203-176-198-178-198h-1l-182-195-184-193-185-191h-1l-188-185-191-183-190-182-194-176-193-172h-2l-193-169h-2l-195-164-194-162-195-155h-2l-195-152-195-144-195-142-193-136-194-129-190-124-189-118-188-112-185-105-182-99-180-91-178-85-1-1-5-2c-71-44-822-490-2368-823h-8405c-1306 260-2189 644-2895 1102l-185 105-188 112-189 118-190 124-194 129-193 136-195 142-195 144-195 152h-2l-195 155-194 162-195 164h-2l-193 169h-2l-193 172-194 176-190 182-191 183-188 185h-1l-185 191-184 193-182 195h-1l-178 198-176 198-172 203h-1l-169 204-165 206h-1l-162 207-157 208-154 209-148 210-144 211-137 210h-2l-132 211-128 211-122 211-115 210h-2l-107 211-102 208h-2l-96 210-87 208-80 206h-2l-73 204-65 202-58 203-50 198-41 196h-1c-12 66-21 130-31 195h-1c-7 64-17 128-22 191l-13 188h-2c-1 64-4 123-4 185 0 61 2 122 6 181l13 181 17 174 21 169 26 167 30 161 32 159h2l35 154h1l40 150h1l44 148 48 143 51 138 54 136 56 132 60 128 61 125 66 120 66 118 69 113 71 111 73 106 73 105 77 99 77 99 79 94 78 91 81 89 80 84 83 83 81 79 83 77 83 72 83 70 81 67 83 66 80 61 81 60h1l79 56h1l79 54 79 51 77 48 74 47 76 44 71 43h1l70 39 70 35 65 37 66 32 61 30 58 28 57 26h1l53 25 51 22 46 18h2l43 19 41 15 38 15 32 11 30 12 25 9h2l18 7h2l15 4h1l12 6 7 1h9284zm7877-14524zM777 21597c-1 64-4 123-4 185m2306-9612c2033-363 4139-2249 10160-2249h3520c986 0 1866 51 2657 137h1c4049 439 5802 1808 7501 2112 1502 268 2944-1906 839-3326-1730-1167-4240-1540-5992-1652V4768c0-879-718-1596-1596-1596-879 0-1598 717-1598 1596v2395h-7148V4768c0-879-719-1596-1598-1596-878 0-1596 717-1596 1596v2424c-1752 112-4261 485-5992 1652-2106 1420-664 3594 839 3326z" id="Layer_x0020_1"/></symbol></svg>